<?xml version="1.0" encoding="UTF-8"?>
<svg width="52px" height="51px" viewBox="0 0 52 51" version="1.1" xmlns="http://www.w3.org/2000/svg" xmlns:xlink="http://www.w3.org/1999/xlink">
    <!-- Generator: sketchtool 53.2 (72643) - https://sketchapp.com -->
    <title>7AC0DBDF-1420-4818-A372-B31C03248B90</title>
    <desc>Created with sketchtool.</desc>
    <g id="Page-1" stroke="none" stroke-width="1" fill="none" fill-rule="evenodd">
        <g id="rating-app-message" transform="translate(-934.000000, -477.000000)" fill="#425BD9" fill-rule="nonzero">
            <g id="Group" transform="translate(778.000000, 477.000000)">
                <g id="check" transform="translate(156.000000, 0.000000)">
                    <path d="M49.8033332,21.1877677 C48.5900789,21.1877677 47.6066664,22.1523727 47.6066664,23.3421911 L47.6066664,25.5121357 C47.6033738,31.1724712 45.3527515,36.4927991 41.2694493,40.4928889 C37.1891211,44.4900621 31.7670226,46.6909449 26.0003739,46.6909449 C25.9961254,46.6909449 25.991877,46.6909449 25.9876285,46.6909449 C14.073669,46.684278 4.38654038,37.1727102 4.39333792,25.4877601 C4.39663048,19.8275288 6.64725275,14.5072009 10.7306612,10.5069027 C14.8109894,6.50972959 20.2331941,4.30884681 25.9997366,4.30884681 C26.0039851,4.30884681 26.0082335,4.30884681 26.012482,4.30884681 C29.0577789,4.31051351 32.0123712,4.92781905 34.7940511,6.14336719 C35.9024746,6.62775307 37.2006981,6.13909626 37.6945817,5.05230101 C38.1882529,3.96550576 37.6903333,2.69193548 36.5821222,2.2075496 C33.2347597,0.744704232 29.6795412,0.00197921113 26.0149249,0 C26.0094019,0 26.0051534,0 25.9996304,0 C19.0609375,0 12.5355136,2.64880951 7.62577956,7.45850091 C2.71222186,12.2719424 0.00404032104,18.6740654 4.28298079e-06,25.4854684 C-0.00392554355,32.2966631 2.69660876,38.701807 7.60464347,43.5208736 C12.5126782,48.3399402 19.0402262,50.9960416 25.9850794,51 C25.9904962,51 25.9948509,51 26.0003739,51 C32.9390668,51 39.4644906,48.3512947 44.3742247,43.5414991 C49.2877824,38.7279534 51.995964,32.3258304 52,25.5133857 L52,23.3422953 C52,22.1523727 51.0165875,21.1877677 49.8033332,21.1877677 Z" id="Path"></path>
                    <path d="M51.2521764,3.63118515 C50.4106339,2.78960495 49.0462661,2.78960495 48.2047235,3.63118515 L24.0431699,27.7967084 L18.5618389,22.3144532 C17.7204006,21.4727688 16.3559286,21.4727688 15.5144902,22.3144532 C14.6729477,23.1561377 14.6729477,24.5207356 15.5144902,25.36242 L22.5195998,32.3687106 C22.9403189,32.7896049 23.4919007,33 24.0433783,33 C24.5948559,33 25.1463335,32.7896049 25.5671569,32.3687106 L51.2521764,6.67915189 C52.093719,5.83746748 52.093719,4.47286956 51.2521764,3.63118515 Z" id="Path"></path>
                </g>
            </g>
        </g>
    </g>
</svg>