<?xml version="1.0" encoding="UTF-8"?>
<svg width="64px" height="64px" viewBox="0 0 64 64" version="1.1" xmlns="http://www.w3.org/2000/svg" xmlns:xlink="http://www.w3.org/1999/xlink">
    <!-- Generator: sketchtool 53.2 (72643) - https://sketchapp.com -->
    <title>2F06B9E4-0E75-4EF0-A9AC-42923794EA7E</title>
    <desc>Created with sketchtool.</desc>
    <g id="Page-1" stroke="none" stroke-width="1" fill="none" fill-rule="evenodd" opacity="0.600000024">
        <g id="rating-app-5" transform="translate(-677.000000, -619.000000)" fill="#FFFFFF" fill-rule="nonzero">
            <g id="Group" transform="translate(364.000000, 581.000000)">
                <g id="Blue" transform="translate(251.000000, 0.000000)">
                    <g id="baseline-sentiment_satisfied-24px" transform="translate(62.000000, 38.000000)">
                        <circle id="Oval" cx="42.6465143" cy="23.3002078" r="4.83657661"></circle>
                        <circle id="Oval" cx="20.3982619" cy="23.3002078" r="4.83657661"></circle>
                        <path d="M31.9741243,0.0846400907 C14.3535084,0.0846400907 0.0846400907,14.3854298 0.0846400907,32.0060457 C0.0846400907,49.6266616 14.3535084,63.9274514 31.9741243,63.9274514 C49.6266616,63.9274514 63.9274514,49.6266616 63.9274514,32.0060457 C63.9274514,14.3854298 49.6266616,0.0846400907 31.9741243,0.0846400907 Z M32.0060457,57.5431702 C17.8967844,57.5431702 6.46892122,46.115307 6.46892122,32.0060457 C6.46892122,17.8967844 17.8967844,6.46892122 32.0060457,6.46892122 C46.115307,6.46892122 57.5431702,17.8967844 57.5431702,32.0060457 C57.5431702,46.115307 46.115307,57.5431702 32.0060457,57.5431702 Z M32.0060457,44.774608 C29.6757831,44.774608 27.6008917,44.2000227 25.7494502,43.1146949 C25.3663933,43.5615946 23.0042093,46.2429926 22.5253882,46.7856565 C25.2706291,48.5413338 28.4946911,49.5628188 32.0060457,49.5628188 C35.5493217,49.5628188 38.7733837,48.5094124 41.5186246,46.7537351 C38.4222483,43.2743019 41.4867032,46.6898923 38.2945626,43.0827735 C36.4111997,44.2000227 34.3363083,44.774608 32.0060457,44.774608 Z" id="Shape"></path>
                    </g>
                </g>
            </g>
        </g>
    </g>
</svg>