<?xml version="1.0" encoding="UTF-8"?>
<svg width="64px" height="64px" viewBox="0 0 64 64" version="1.1" xmlns="http://www.w3.org/2000/svg" xmlns:xlink="http://www.w3.org/1999/xlink">
    <!-- Generator: sketchtool 53.2 (72643) - https://sketchapp.com -->
    <title>976A347B-957D-4DFD-A0EB-5A356D64F714</title>
    <desc>Created with sketchtool.</desc>
    <g id="Page-1" stroke="none" stroke-width="1" fill="none" fill-rule="evenodd" opacity="0.5">
        <g id="rating-app-5" transform="translate(-928.000000, -619.000000)" fill="#FFFFFF" fill-rule="nonzero">
            <g id="Group" transform="translate(364.000000, 581.000000)">
                <g id="gray" transform="translate(502.000000, 0.000000)">
                    <g id="baseline-sentiment_dissatisfied-24px" transform="translate(62.000000, 38.000000)">
                        <ellipse id="Oval" cx="42.825393" cy="24.0945766" rx="4.69088244" ry="4.6960477"></ellipse>
                        <ellipse id="Oval" cx="20.9346083" cy="24.0945766" rx="4.69088244" ry="4.6960477"></ellipse>
                        <path d="M31.8487281,0.614338107 C14.5862808,0.614338107 0.607451094,14.6398672 0.607451094,31.9213228 C0.607451094,49.2027783 14.5862808,63.2283074 31.8487281,63.2283074 C49.1424481,63.2283074 63.1525503,49.2027783 63.1525503,31.9213228 C63.1525503,14.6398672 49.1424481,0.614338107 31.8487281,0.614338107 Z M31.8800007,56.9669105 C18.0575338,56.9669105 6.86196101,45.75901 6.86196101,31.9213228 C6.86196101,18.0836355 18.0575338,6.87573504 31.8800007,6.87573504 C45.7024676,6.87573504 56.8980404,18.0836355 56.8980404,31.9213228 C56.8980404,45.75901 45.7024676,56.9669105 31.8800007,56.9669105 Z M31.8800007,46.0094659 C34.1628968,46.0094659 36.2268851,46.6042986 38.040693,47.668736 C38.4159635,47.2304383 40.7301322,44.6006515 41.1992205,44.0997398 C38.5410537,42.3465487 35.3512537,41.3134182 31.8800007,41.3134182 C28.4087477,41.3134182 25.2189476,42.3465487 22.5295084,44.0684328 C25.5629457,47.4808941 22.5607809,44.1310468 25.6880359,47.6374291 C27.5331163,46.6042986 29.5971046,46.0094659 31.8800007,46.0094659 Z" id="Shape"></path>
                    </g>
                </g>
            </g>
        </g>
    </g>
</svg>