<?xml version="1.0" encoding="UTF-8"?>
<svg width="155px" height="158px" viewBox="0 0 155 158" version="1.1" xmlns="http://www.w3.org/2000/svg" xmlns:xlink="http://www.w3.org/1999/xlink">
    <!-- Generator: sketchtool 53.2 (72643) - https://sketchapp.com -->
    <title>5BD05803-5A05-4CA2-80EC-4E0BE3AB8CAD</title>
    <desc>Created with sketchtool.</desc>
    <g id="Page-1" stroke="none" stroke-width="1" fill="none" fill-rule="evenodd">
        <g id="rating-app-5" transform="translate(-883.000000, -286.000000)" fill-rule="nonzero">
            <g id="positive-vote" transform="translate(883.000000, 286.000000)">
                <path d="M142,87.0011993 C142,126.213018 110.209421,158 70.9988007,158 C61.3796085,158 52.2100791,156.087433 43.8463462,152.62083 C20.9866749,143.151526 4.14889125,122.084511 0.667899468,96.7594873 C0.225431085,93.5698773 0,90.3119185 0,87.0011993 C0,47.7869823 31.786982,16 70.9988007,16 C110.209421,16 142,47.7869823 142,87.0011993 Z" id="Path" fill="#937DE2"></path>
                <path d="M71.0304171,16 C67.2777023,16 63.5945042,16.2937801 60,16.8549596 C93.9566174,22.1561873 119.940364,51.5401699 119.940364,87.0011993 C119.940364,122.457432 93.9590147,151.840216 60.0047943,157.143842 C63.5980997,157.705021 67.2789007,158 71.0292186,158 C110.223577,158 142,126.213018 142,87.0011993 C142,47.7869823 110.223577,16 71.0304171,16 L71.0304171,16 Z" id="Path" fill="#7570D6"></path>
                <path d="M150.886651,81.1941757 L110.388693,108.131422 C107.503254,110.051644 104.008147,110.813236 100.592094,110.264601 C97.1676562,109.717169 93.6641655,110.467932 90.7715396,112.391764 L85.3516095,116 L55,71.0588698 L62.4465649,38.7447622 C63.0250901,36.2289829 63.3113583,33.6795155 63.3113583,31.1396732 C63.3113583,24.5692904 61.3985123,18.0843311 57.7297285,12.5173723 C56.8278043,11.1481915 56.3966054,9.59974224 56.3966054,8.07054301 C56.3966054,5.45730888 57.6590597,2.89340369 59.9923247,1.3413449 C63.1364831,-0.750926877 67.3035411,-0.362310492 70.0105118,2.27498656 L74.8351481,6.96846085 C80.3520983,12.3453223 84.6077915,18.8916425 87.2800268,26.1321777 L89.8959666,33.206679 L116.835116,15.3279225 C121.137522,12.46684 126.957509,13.7181124 129.705204,18.1444883 C132.354682,22.4084394 130.99401,28.0427743 126.819765,30.8184333 C126.769459,30.8521214 126.765866,30.9062629 126.782634,30.9471697 C126.80659,30.9916864 126.856896,31.021765 126.913192,30.9977021 C127.978013,30.5862261 129.091944,30.3865037 130.196292,30.3865037 C131.959416,30.3865037 133.70697,30.8966378 135.201792,31.867577 C136.231879,32.5365265 137.144583,33.4256518 137.864446,34.5181085 C139.255062,36.6284275 139.669492,39.1032997 139.214337,41.4037158 C138.500464,45.0275929 135.878535,46.8948762 135.363492,47.246195 C135.276054,47.3075555 135.252099,47.4290733 135.313185,47.5205124 C135.313185,47.5229188 135.316779,47.5265284 135.319174,47.5265284 C135.376667,47.608342 135.494049,47.6312019 135.577893,47.5782634 C136.31213,47.3989947 137.059541,47.3135712 137.806952,47.3135712 C139.631163,47.3135712 141.445792,47.8345338 142.988525,48.822317 C144.031787,49.4924695 144.954073,50.3779853 145.667947,51.4632236 C148.468344,55.7103305 147.311294,61.4349015 143.078358,64.2490608 C142.974152,64.3200466 142.869946,64.3910323 142.765739,64.4584085 C142.70585,64.5065343 142.687884,64.5835357 142.719026,64.6376772 C142.725015,64.6509119 142.739388,64.6653497 142.752564,64.6713653 C142.799277,64.708663 142.873539,64.7122722 142.934626,64.6653497 C145.563741,63.7653961 148.425224,64.1744659 150.727347,65.6723832 C151.787378,66.3557704 152.727631,67.2761774 153.471449,68.4047289 C156.273044,72.6554453 155.114796,78.380016 150.886651,81.1941757 L150.886651,81.1941757 Z" id="Path" fill="#FDD7BD"></path>
                <path d="M86.0393994,124.040567 L68.9225593,135.482095 L44.2109015,152 C21.3340479,142.433496 4.48360824,121.156565 1,95.5724057 L29.6776674,76.4030608 L47.1353083,64.7326045 C49.145313,63.3881097 51.8573191,63.9464988 53.1893224,65.9789874 L87.2742022,117.926144 C88.6062052,119.958632 88.053004,122.691227 86.0393994,124.040567 L86.0393994,124.040567 Z" id="Path" fill="#87DBFF"></path>
                <path d="M85.0502352,124.635636 L68.0279955,136 L29,77.3194111 L46.361157,65.7276636 C48.360053,64.3922364 51.0570705,64.9468597 52.3817121,66.9656405 L86.2782135,118.561248 C87.6028549,120.581232 87.052711,123.295397 85.0502352,124.635636 L85.0502352,124.635636 Z" id="Path" fill="#6FC7FF"></path>
                <g id="Group" transform="translate(116.000000, 30.000000)" fill="#FAC5AA">
                    <path d="M19.2833403,1.66202461 L5.79015899,8.82014274 C3.87609649,9.83305035 1.50270689,9.304008 0.215871711,7.57659639 L10.8535497,0.753736261 C10.8775358,0.797724261 10.9279057,0.827445652 10.9842723,0.803668478 C12.0504386,0.397078957 13.1657756,0.199728261 14.2715186,0.199728261 C16.0380687,0.199728261 17.7866297,0.703804348 19.2833403,1.66202461 L19.2833403,1.66202461 Z" id="Path"></path>
                    <path d="M27.0799068,18.4166101 L13.8805511,25.4130435 C11.9664883,26.4295177 9.59309904,25.9016645 8.30506434,24.1742529 L18.9427427,17.3502037 L19.4020695,17.1362094 C19.4596353,17.2170515 19.5771656,17.2396399 19.6611155,17.1873301 C20.3962789,17.0101902 21.1446341,16.9257812 21.8929894,16.9257812 C23.7195037,16.9257812 25.536424,17.4405572 27.0799068,18.4166101 Z" id="Path"></path>
                    <path d="M34.8297011,35.0665761 L23.2038103,41.2319971 C21.2921462,42.243716 18.9199561,41.7158627 17.6283238,39.9884511 L26.8436473,34.0774457 C26.8916188,34.1143003 26.9659744,34.1178667 27.0259389,34.0703123 C29.6583743,33.1822351 32.5234718,33.5864471 34.8297011,35.0665761 L34.8297011,35.0665761 Z" id="Path"></path>
                </g>
            </g>
        </g>
    </g>
</svg>