<?xml version="1.0" encoding="UTF-8"?>
<svg width="64px" height="64px" viewBox="0 0 64 64" version="1.1" xmlns="http://www.w3.org/2000/svg" xmlns:xlink="http://www.w3.org/1999/xlink">
    <!-- Generator: sketchtool 53.2 (72643) - https://sketchapp.com -->
    <title>77C9B8D3-51DE-49D5-A64F-9407D7F7F698</title>
    <desc>Created with sketchtool.</desc>
    <g id="Page-1" stroke="none" stroke-width="1" fill="none" fill-rule="evenodd" opacity="0.5">
        <g id="rating-app-5" transform="translate(-1180.000000, -619.000000)" fill="#FFFFFF" fill-rule="nonzero">
            <g id="Group" transform="translate(364.000000, 581.000000)">
                <g id="orange" transform="translate(754.000000, 0.000000)">
                    <g id="baseline-sentiment_very_dissatisfied-24px" transform="translate(62.000000, 38.000000)">
                        <ellipse id="Oval" cx="42.825393" cy="24.0945766" rx="4.69088244" ry="4.6960477"></ellipse>
                        <ellipse id="Oval" cx="20.9346083" cy="24.0945766" rx="4.69088244" ry="4.6960477"></ellipse>
                        <path d="M31.8487281,0.614338107 C14.5862808,0.614338107 0.607451094,14.6398672 0.607451094,31.9213228 C0.607451094,49.2027783 14.5862808,63.2283074 31.8487281,63.2283074 C49.1424481,63.2283074 63.1525503,49.2027783 63.1525503,31.9213228 C63.1525503,14.6398672 49.1424481,0.614338107 31.8487281,0.614338107 Z M31.8800007,56.9669105 C18.0575338,56.9669105 6.86196101,45.75901 6.86196101,31.9213228 C6.86196101,18.0836355 18.0575338,6.87573504 31.8800007,6.87573504 C45.7024676,6.87573504 56.8980404,18.0836355 56.8980404,31.9213228 C56.8980404,45.75901 45.7024676,56.9669105 31.8800007,56.9669105 Z M31.8800007,38.1827197 C24.5934966,38.1827197 18.3702593,42.7222325 15.8684553,49.1401643 L21.0909711,49.1401643 C23.248777,45.4146331 27.2516633,42.8787674 31.8800007,42.8787674 C36.508338,42.8787674 40.4799518,45.4146331 42.6690303,49.1401643 L47.8915461,49.1401643 C45.3897421,42.7222325 39.1665047,38.1827197 31.8800007,38.1827197 L31.8800007,38.1827197 Z" id="Shape"></path>
                    </g>
                </g>
            </g>
        </g>
    </g>
</svg>