<?xml version="1.0" encoding="UTF-8"?>
<svg width="64px" height="64px" viewBox="0 0 64 64" version="1.1" xmlns="http://www.w3.org/2000/svg" xmlns:xlink="http://www.w3.org/1999/xlink">
    <!-- Generator: sketchtool 53.2 (72643) - https://sketchapp.com -->
    <title>2A8C80DC-F9D5-4ABE-AFBD-BC0BE8A8DFFC</title>
    <desc>Created with sketchtool.</desc>
    <g id="Page-1" stroke="none" stroke-width="1" fill="none" fill-rule="evenodd" opacity="0.5">
        <g id="rating-app-5" transform="translate(-426.000000, -619.000000)" fill="#FFFFFF" fill-rule="nonzero">
            <g id="Group" transform="translate(364.000000, 581.000000)">
                <g id="Green">
                    <g id="baseline-sentiment_very_satisfied-24px" transform="translate(62.000000, 38.000000)">
                        <ellipse id="Oval" cx="40.7239751" cy="25.6943132" rx="4.83657661" ry="5.32023427"></ellipse>
                        <ellipse id="Oval" cx="20.4103533" cy="25.6943132" rx="4.83657661" ry="5.32023427"></ellipse>
                        <path d="M31.9862158,0.0604572076 C14.3655998,0.0604572076 0.0967315322,14.3612469 0.0967315322,31.9818628 C0.0967315322,49.6024787 14.3655998,63.9032685 31.9862158,63.9032685 C49.6387531,63.9032685 63.9395428,49.6024787 63.9395428,31.9818628 C63.9395428,14.3612469 49.6387531,0.0604572076 31.9862158,0.0604572076 Z M32.0181372,57.5189873 C17.9088759,57.5189873 6.48101266,46.0911241 6.48101266,31.9818628 C6.48101266,17.8726015 17.9088759,6.44473833 32.0181372,6.44473833 C46.1273985,6.44473833 57.5552617,17.8726015 57.5552617,31.9818628 C57.5552617,46.0911241 46.1273985,57.5189873 32.0181372,57.5189873 Z M16.0574343,38.366144 C18.547304,45.8357529 24.7400567,51.1347062 32.0181372,51.1347062 C39.2962176,51.1347062 45.4889703,45.8357529 47.97884,38.366144 L16.0574343,38.366144 Z" id="Shape"></path>
                    </g>
                </g>
            </g>
        </g>
    </g>
</svg>