<?xml version="1.0" encoding="UTF-8"?>
<svg width="64px" height="64px" viewBox="0 0 64 64" version="1.1" xmlns="http://www.w3.org/2000/svg" xmlns:xlink="http://www.w3.org/1999/xlink">
    <!-- Generator: sketchtool 53.2 (72643) - https://sketchapp.com -->
    <title>C35A64D2-79DE-48A7-981C-A20EC48A0A6C</title>
    <desc>Created with sketchtool.</desc>
    <g id="Page-1" stroke="none" stroke-width="1" fill="none" fill-rule="evenodd" opacity="0.600000024">
        <g id="rating-app" transform="translate(-1180.000000, -619.000000)" fill="#FFFFFF" fill-rule="nonzero">
            <g id="Group" transform="translate(615.000000, 581.000000)">
                <g id="Stacked-Group">
                    <g id="red" transform="translate(503.000000, 0.000000)">
                        <g id="baseline-mood_bad-24px" transform="translate(62.000000, 38.000000)">
                            <path d="M31.968,0 C14.304,0 0,14.336 0,32 C0,49.664 14.304,64 31.968,64 C49.664,64 64,49.664 64,32 C64,14.336 49.664,0 31.968,0 Z M32,57.6 C17.856,57.6 6.4,46.144 6.4,32 C6.4,17.856 17.856,6.4 32,6.4 C46.144,6.4 57.6,17.856 57.6,32 C57.6,46.144 46.144,57.6 32,57.6 Z M43.2,28.8 C45.856,28.8 48,26.656 48,24 C48,21.344 45.856,19.2 43.2,19.2 C40.544,19.2 38.4,21.344 38.4,24 C38.4,26.656 40.544,28.8 43.2,28.8 Z M20.8,28.8 C23.456,28.8 25.6,26.656 25.6,24 C25.6,21.344 23.456,19.2 20.8,19.2 C18.144,19.2 16,21.344 16,24 C16,26.656 18.144,28.8 20.8,28.8 Z M32,38.4 C24.544,38.4 18.208,43.072 15.648,49.6 L48.352,49.6 C45.792,43.072 39.456,38.4 32,38.4 Z" id="Shape"></path>
                        </g>
                    </g>
                </g>
            </g>
        </g>
    </g>
</svg>